<mxfile host="app.diagrams.net" agent="Mozilla/5.0 (Windows NT 10.0; Win64; x64) AppleWebKit/537.36 (KHTML, like Gecko) Chrome/128.0.0.0 Safari/537.36" version="24.7.7">
  <diagram name="Page-1" id="S4bO2uHswTxtZCL-0LRK">
    <mxGraphModel dx="882" dy="570" grid="1" gridSize="10" guides="1" tooltips="1" connect="1" arrows="1" fold="1" page="1" pageScale="1" pageWidth="850" pageHeight="1100" math="0" shadow="0">
      <root>
        <mxCell id="0" />
        <mxCell id="1" parent="0" />
        <mxCell id="vwwyMksGz9fF-YNYRffl-1" value="Player 1 chooses a word, which is hidden from player 2." style="rounded=0;whiteSpace=wrap;html=1;" parent="1" vertex="1">
          <mxGeometry x="454" y="20" width="120" height="60" as="geometry" />
        </mxCell>
        <mxCell id="vwwyMksGz9fF-YNYRffl-5" value="" style="edgeStyle=orthogonalEdgeStyle;rounded=0;orthogonalLoop=1;jettySize=auto;html=1;" parent="1" source="vwwyMksGz9fF-YNYRffl-2" target="vwwyMksGz9fF-YNYRffl-4" edge="1">
          <mxGeometry relative="1" as="geometry" />
        </mxCell>
        <mxCell id="vwwyMksGz9fF-YNYRffl-2" value="number of characters in P1 word is displayed for P2, along with starting hangman." style="rounded=0;whiteSpace=wrap;html=1;" parent="1" vertex="1">
          <mxGeometry x="434" y="120" width="160" height="60" as="geometry" />
        </mxCell>
        <mxCell id="vwwyMksGz9fF-YNYRffl-3" value="" style="endArrow=classic;html=1;rounded=0;exitX=0.5;exitY=1;exitDx=0;exitDy=0;" parent="1" source="vwwyMksGz9fF-YNYRffl-1" target="vwwyMksGz9fF-YNYRffl-2" edge="1">
          <mxGeometry width="50" height="50" relative="1" as="geometry">
            <mxPoint x="504" y="320" as="sourcePoint" />
            <mxPoint x="554" y="270" as="targetPoint" />
          </mxGeometry>
        </mxCell>
        <mxCell id="vwwyMksGz9fF-YNYRffl-36" value="" style="edgeStyle=orthogonalEdgeStyle;rounded=0;orthogonalLoop=1;jettySize=auto;html=1;" parent="1" source="vwwyMksGz9fF-YNYRffl-4" target="vwwyMksGz9fF-YNYRffl-35" edge="1">
          <mxGeometry relative="1" as="geometry" />
        </mxCell>
        <mxCell id="vwwyMksGz9fF-YNYRffl-4" value="P2 guess a letter" style="whiteSpace=wrap;html=1;rounded=0;" parent="1" vertex="1">
          <mxGeometry x="454" y="220" width="120" height="30" as="geometry" />
        </mxCell>
        <mxCell id="vwwyMksGz9fF-YNYRffl-9" value="" style="edgeStyle=orthogonalEdgeStyle;rounded=0;orthogonalLoop=1;jettySize=auto;html=1;" parent="1" source="vwwyMksGz9fF-YNYRffl-6" target="vwwyMksGz9fF-YNYRffl-8" edge="1">
          <mxGeometry relative="1" as="geometry" />
        </mxCell>
        <mxCell id="vwwyMksGz9fF-YNYRffl-6" value="letter is correct" style="whiteSpace=wrap;html=1;rounded=0;" parent="1" vertex="1">
          <mxGeometry x="134" y="420" width="120" height="30" as="geometry" />
        </mxCell>
        <mxCell id="vwwyMksGz9fF-YNYRffl-17" value="" style="edgeStyle=orthogonalEdgeStyle;rounded=0;orthogonalLoop=1;jettySize=auto;html=1;" parent="1" source="vwwyMksGz9fF-YNYRffl-8" target="vwwyMksGz9fF-YNYRffl-16" edge="1">
          <mxGeometry relative="1" as="geometry" />
        </mxCell>
        <mxCell id="vwwyMksGz9fF-YNYRffl-8" value="letter is displayed" style="whiteSpace=wrap;html=1;rounded=0;" parent="1" vertex="1">
          <mxGeometry x="134" y="470" width="120" height="30" as="geometry" />
        </mxCell>
        <mxCell id="vwwyMksGz9fF-YNYRffl-12" value="letter is incorrect" style="whiteSpace=wrap;html=1;rounded=0;" parent="1" vertex="1">
          <mxGeometry x="294" y="420" width="120" height="30" as="geometry" />
        </mxCell>
        <mxCell id="vwwyMksGz9fF-YNYRffl-21" value="" style="edgeStyle=orthogonalEdgeStyle;rounded=0;orthogonalLoop=1;jettySize=auto;html=1;" parent="1" source="vwwyMksGz9fF-YNYRffl-13" target="vwwyMksGz9fF-YNYRffl-20" edge="1">
          <mxGeometry relative="1" as="geometry" />
        </mxCell>
        <mxCell id="vwwyMksGz9fF-YNYRffl-13" value="a new section of the hangman is added and the letter displayed" style="whiteSpace=wrap;html=1;rounded=0;" parent="1" vertex="1">
          <mxGeometry x="274" y="470" width="200" height="40" as="geometry" />
        </mxCell>
        <mxCell id="vwwyMksGz9fF-YNYRffl-26" value="YES" style="edgeStyle=orthogonalEdgeStyle;rounded=0;orthogonalLoop=1;jettySize=auto;html=1;" parent="1" source="vwwyMksGz9fF-YNYRffl-16" target="vwwyMksGz9fF-YNYRffl-25" edge="1">
          <mxGeometry relative="1" as="geometry" />
        </mxCell>
        <mxCell id="vwwyMksGz9fF-YNYRffl-55" value="NO" style="edgeStyle=orthogonalEdgeStyle;rounded=0;orthogonalLoop=1;jettySize=auto;html=1;" parent="1" source="vwwyMksGz9fF-YNYRffl-16" edge="1">
          <mxGeometry relative="1" as="geometry">
            <mxPoint x="114" y="240" as="targetPoint" />
          </mxGeometry>
        </mxCell>
        <mxCell id="vwwyMksGz9fF-YNYRffl-16" value="is the word complete?" style="whiteSpace=wrap;html=1;rounded=0;" parent="1" vertex="1">
          <mxGeometry x="134" y="530" width="120" height="30" as="geometry" />
        </mxCell>
        <mxCell id="vwwyMksGz9fF-YNYRffl-24" value="YES" style="edgeStyle=orthogonalEdgeStyle;rounded=0;orthogonalLoop=1;jettySize=auto;html=1;" parent="1" source="vwwyMksGz9fF-YNYRffl-20" target="vwwyMksGz9fF-YNYRffl-23" edge="1">
          <mxGeometry relative="1" as="geometry" />
        </mxCell>
        <mxCell id="vwwyMksGz9fF-YNYRffl-53" value="NO" style="edgeStyle=orthogonalEdgeStyle;rounded=0;orthogonalLoop=1;jettySize=auto;html=1;" parent="1" source="vwwyMksGz9fF-YNYRffl-20" edge="1">
          <mxGeometry relative="1" as="geometry">
            <mxPoint x="704" y="220" as="targetPoint" />
          </mxGeometry>
        </mxCell>
        <mxCell id="vwwyMksGz9fF-YNYRffl-20" value="is the hangman complete?" style="whiteSpace=wrap;html=1;rounded=0;" parent="1" vertex="1">
          <mxGeometry x="299" y="530" width="150" height="30" as="geometry" />
        </mxCell>
        <mxCell id="vwwyMksGz9fF-YNYRffl-57" style="edgeStyle=orthogonalEdgeStyle;rounded=0;orthogonalLoop=1;jettySize=auto;html=1;entryX=0.5;entryY=0;entryDx=0;entryDy=0;" parent="1" source="vwwyMksGz9fF-YNYRffl-23" target="vwwyMksGz9fF-YNYRffl-27" edge="1">
          <mxGeometry relative="1" as="geometry" />
        </mxCell>
        <mxCell id="vwwyMksGz9fF-YNYRffl-23" value="display GAME OVER - YOU LOSE" style="whiteSpace=wrap;html=1;rounded=0;" parent="1" vertex="1">
          <mxGeometry x="314" y="600" width="120" height="60" as="geometry" />
        </mxCell>
        <mxCell id="vwwyMksGz9fF-YNYRffl-58" style="edgeStyle=orthogonalEdgeStyle;rounded=0;orthogonalLoop=1;jettySize=auto;html=1;entryX=0;entryY=0.5;entryDx=0;entryDy=0;exitX=0.5;exitY=1;exitDx=0;exitDy=0;" parent="1" source="vwwyMksGz9fF-YNYRffl-25" target="vwwyMksGz9fF-YNYRffl-27" edge="1">
          <mxGeometry relative="1" as="geometry" />
        </mxCell>
        <mxCell id="vwwyMksGz9fF-YNYRffl-25" value="display WELL DONE - YOU WIN" style="whiteSpace=wrap;html=1;rounded=0;" parent="1" vertex="1">
          <mxGeometry x="134" y="600" width="120" height="60" as="geometry" />
        </mxCell>
        <mxCell id="vwwyMksGz9fF-YNYRffl-31" value="NO" style="edgeStyle=orthogonalEdgeStyle;rounded=0;orthogonalLoop=1;jettySize=auto;html=1;" parent="1" source="vwwyMksGz9fF-YNYRffl-27" target="vwwyMksGz9fF-YNYRffl-30" edge="1">
          <mxGeometry relative="1" as="geometry" />
        </mxCell>
        <mxCell id="vwwyMksGz9fF-YNYRffl-32" value="YES" style="edgeStyle=orthogonalEdgeStyle;rounded=0;orthogonalLoop=1;jettySize=auto;html=1;exitX=1;exitY=0.5;exitDx=0;exitDy=0;entryX=1;entryY=0.5;entryDx=0;entryDy=0;" parent="1" source="vwwyMksGz9fF-YNYRffl-27" target="vwwyMksGz9fF-YNYRffl-1" edge="1">
          <mxGeometry relative="1" as="geometry">
            <mxPoint x="464" y="60" as="targetPoint" />
            <mxPoint x="504" y="680" as="sourcePoint" />
            <Array as="points">
              <mxPoint x="755" y="680" />
              <mxPoint x="755" y="50" />
            </Array>
          </mxGeometry>
        </mxCell>
        <mxCell id="vwwyMksGz9fF-YNYRffl-27" value="do you want to play again?" style="whiteSpace=wrap;html=1;rounded=0;" parent="1" vertex="1">
          <mxGeometry x="494" y="660" width="120" height="40" as="geometry" />
        </mxCell>
        <mxCell id="vwwyMksGz9fF-YNYRffl-30" value="end game" style="whiteSpace=wrap;html=1;rounded=0;" parent="1" vertex="1">
          <mxGeometry x="494" y="740" width="120" height="25" as="geometry" />
        </mxCell>
        <mxCell id="vwwyMksGz9fF-YNYRffl-39" value="" style="edgeStyle=orthogonalEdgeStyle;rounded=0;orthogonalLoop=1;jettySize=auto;html=1;exitX=0.25;exitY=1;exitDx=0;exitDy=0;" parent="1" source="vwwyMksGz9fF-YNYRffl-35" target="vwwyMksGz9fF-YNYRffl-38" edge="1">
          <mxGeometry relative="1" as="geometry" />
        </mxCell>
        <mxCell id="vwwyMksGz9fF-YNYRffl-43" style="edgeStyle=orthogonalEdgeStyle;rounded=0;orthogonalLoop=1;jettySize=auto;html=1;exitX=0.75;exitY=1;exitDx=0;exitDy=0;entryX=0.5;entryY=0;entryDx=0;entryDy=0;" parent="1" source="vwwyMksGz9fF-YNYRffl-35" target="vwwyMksGz9fF-YNYRffl-40" edge="1">
          <mxGeometry relative="1" as="geometry" />
        </mxCell>
        <mxCell id="vwwyMksGz9fF-YNYRffl-35" value="has the letter already been guessed?" style="whiteSpace=wrap;html=1;rounded=0;" parent="1" vertex="1">
          <mxGeometry x="454" y="280" width="120" height="60" as="geometry" />
        </mxCell>
        <mxCell id="vwwyMksGz9fF-YNYRffl-49" style="edgeStyle=orthogonalEdgeStyle;rounded=0;orthogonalLoop=1;jettySize=auto;html=1;exitX=0;exitY=0.25;exitDx=0;exitDy=0;entryX=0.5;entryY=0;entryDx=0;entryDy=0;" parent="1" source="vwwyMksGz9fF-YNYRffl-38" target="vwwyMksGz9fF-YNYRffl-6" edge="1">
          <mxGeometry relative="1" as="geometry">
            <Array as="points">
              <mxPoint x="444" y="390" />
              <mxPoint x="194" y="390" />
            </Array>
          </mxGeometry>
        </mxCell>
        <mxCell id="vwwyMksGz9fF-YNYRffl-50" style="edgeStyle=orthogonalEdgeStyle;rounded=0;orthogonalLoop=1;jettySize=auto;html=1;exitX=0;exitY=0.5;exitDx=0;exitDy=0;entryX=1;entryY=0;entryDx=0;entryDy=0;" parent="1" source="vwwyMksGz9fF-YNYRffl-38" target="vwwyMksGz9fF-YNYRffl-12" edge="1">
          <mxGeometry relative="1" as="geometry" />
        </mxCell>
        <mxCell id="vwwyMksGz9fF-YNYRffl-38" value="no" style="whiteSpace=wrap;html=1;rounded=0;" parent="1" vertex="1">
          <mxGeometry x="444" y="390" width="60" height="60" as="geometry" />
        </mxCell>
        <mxCell id="vwwyMksGz9fF-YNYRffl-45" value="" style="edgeStyle=orthogonalEdgeStyle;rounded=0;orthogonalLoop=1;jettySize=auto;html=1;" parent="1" source="vwwyMksGz9fF-YNYRffl-40" target="vwwyMksGz9fF-YNYRffl-44" edge="1">
          <mxGeometry relative="1" as="geometry" />
        </mxCell>
        <mxCell id="vwwyMksGz9fF-YNYRffl-40" value="yes" style="whiteSpace=wrap;html=1;rounded=0;" parent="1" vertex="1">
          <mxGeometry x="534" y="370" width="60" height="60" as="geometry" />
        </mxCell>
        <mxCell id="vwwyMksGz9fF-YNYRffl-44" value="inform P2 that the letter has already been guessed" style="whiteSpace=wrap;html=1;rounded=0;" parent="1" vertex="1">
          <mxGeometry x="504" y="470" width="120" height="50" as="geometry" />
        </mxCell>
        <mxCell id="vwwyMksGz9fF-YNYRffl-47" value="" style="endArrow=classic;html=1;rounded=0;entryX=1;entryY=1;entryDx=0;entryDy=0;exitX=1;exitY=0;exitDx=0;exitDy=0;" parent="1" source="vwwyMksGz9fF-YNYRffl-44" target="vwwyMksGz9fF-YNYRffl-4" edge="1">
          <mxGeometry width="50" height="50" relative="1" as="geometry">
            <mxPoint x="504" y="260" as="sourcePoint" />
            <mxPoint x="554" y="210" as="targetPoint" />
            <Array as="points">
              <mxPoint x="624" y="260" />
            </Array>
          </mxGeometry>
        </mxCell>
        <mxCell id="vwwyMksGz9fF-YNYRffl-51" value="" style="endArrow=classic;html=1;rounded=0;exitX=0.5;exitY=1;exitDx=0;exitDy=0;entryX=0.5;entryY=0;entryDx=0;entryDy=0;" parent="1" source="vwwyMksGz9fF-YNYRffl-12" target="vwwyMksGz9fF-YNYRffl-13" edge="1">
          <mxGeometry width="50" height="50" relative="1" as="geometry">
            <mxPoint x="504" y="640" as="sourcePoint" />
            <mxPoint x="554" y="590" as="targetPoint" />
          </mxGeometry>
        </mxCell>
        <mxCell id="vwwyMksGz9fF-YNYRffl-52" style="edgeStyle=orthogonalEdgeStyle;rounded=0;orthogonalLoop=1;jettySize=auto;html=1;exitX=0.5;exitY=1;exitDx=0;exitDy=0;" parent="1" source="vwwyMksGz9fF-YNYRffl-20" target="vwwyMksGz9fF-YNYRffl-20" edge="1">
          <mxGeometry relative="1" as="geometry" />
        </mxCell>
        <mxCell id="vwwyMksGz9fF-YNYRffl-54" value="" style="endArrow=classic;html=1;rounded=0;entryX=1;entryY=0;entryDx=0;entryDy=0;" parent="1" target="vwwyMksGz9fF-YNYRffl-4" edge="1">
          <mxGeometry width="50" height="50" relative="1" as="geometry">
            <mxPoint x="704" y="220" as="sourcePoint" />
            <mxPoint x="554" y="430" as="targetPoint" />
          </mxGeometry>
        </mxCell>
        <mxCell id="vwwyMksGz9fF-YNYRffl-56" value="" style="endArrow=classic;html=1;rounded=0;entryX=0;entryY=0.5;entryDx=0;entryDy=0;" parent="1" target="vwwyMksGz9fF-YNYRffl-4" edge="1">
          <mxGeometry width="50" height="50" relative="1" as="geometry">
            <mxPoint x="114" y="240" as="sourcePoint" />
            <mxPoint x="554" y="430" as="targetPoint" />
          </mxGeometry>
        </mxCell>
      </root>
    </mxGraphModel>
  </diagram>
</mxfile>
